{"title":"X-Men: Origin Wolverine (2006)MP-4[DaScubaDude]","uid":12359424,"size":1071522731,"categoryP":"video","categoryS":"movies","magnet":"?xt=urn:btih:e38b34048bd198d2055ffa192faf1bab4da09825&amp;dn=X-Men%3A+Origin+Wolverine+%282006%29MP-4%5BDaScubaDude%5D&amp;tr=udp%3A%2F%2Ftracker.openbittorrent.com%3A80&amp;tr=udp%3A%2F%2Fopen.demonii.com%3A1337&amp;tr=udp%3A%2F%2Ftracker.coppersurfer.tk%3A6969&amp;tr=udp%3A%2F%2Fexodus.desync.com%3A6969","seeders":0,"leechers":0,"uploader":"dascuba","files":1,"time":1441513455,"description":"X-Men Origins: Wolverine (2009)\nPG-13  |  107 min  |  Action, Adventure, Sci-Fi  |  1 May 2009 (USA)\n6.7 Your rating:   -/10   Ratings: 6.7/10 from 320,217 users   Metascore: 40/100 \nReviews: 630 user | 343 critic | 39 from Metacritic.com\nA look at Wolverine's early life, in particular his time with the government squad Team X and the impact it will have on his later years.\n\nDirector: Gavin Hood\nWriters: David Benioff (screenplay), Skip Woods (screenplay)\nStars: Hugh Jackman, Liev Schreiber, Ryan Reynolds\n\nGeneral\nComplete name     : C:X MEN ORIGINS WOLVERINEX_MEN_ORIGINS_WOLVERINE_Title1.mp4\nFormat                                   : MPEG-4\nFormat profile                           : Base Media\nCodec ID                                 : isom\nFile size                                : 1 022 MiB\nDuration                                 : 1h 47mn\nOverall bit rate                         : 1 332 Kbps\nMovie name                               : X_MEN_ORIGINS_WOLVERINE\nGenre                                    : Action\nWriting application                      : Lavf54.6.100\n\nVideo\nID                                       : 1\nFormat                                   : AVC\nFormat/Info                              : Advanced Video Codec\nFormat profile                           : Baseline@L3\nFormat settings, CABAC                   : No\nFormat settings, ReFrames                : 6 frames\nCodec ID                                 : avc1\nCodec ID/Info                            : Advanced Video Coding\nDuration                                 : 1h 47mn\nBit rate                                 : 1 197 Kbps\nWidth                                    : 720 pixels\nHeight                                   : 404 pixels\nDisplay aspect ratio                     : 16:9\nFrame rate mode                          : Constant\nFrame rate                               : 29.970 fps\nColor space                              : YUV\nChroma subsampling                       : 4:2:0\nBit depth                                : 8 bits\nScan type                                : Progressive\nBits/(Pixel*Frame)                       : 0.137\nStream size                              : 918 MiB (90%)\n\nAudio\nID                                       : 2\nFormat                                   : AAC\nFormat/Info                              : Advanced Audio Codec\nFormat profile                           : LC\nCodec ID                                 : 40\nDuration                                 : 1h 47mn\nBit rate mode                            : Constant\nBit rate                                 : 128 Kbps\nChannel(s)                               : 2 channels\nChannel positions                        : Front: L R\nSampling rate                            : 44.1 KHz\nCompression mode                         : Lossy\nStream size                              : 98.2 MiB (10%)","torrent":{"xt":"urn:btih:e38b34048bd198d2055ffa192faf1bab4da09825","amp;dn":"X-Men%3A+Origin+Wolverine+%282006%29MP-4%5BDaScubaDude%5D","amp;tr":["udp%3A%2F%2Ftracker.openbittorrent.com%3A80","udp%3A%2F%2Fopen.demonii.com%3A1337","udp%3A%2F%2Ftracker.coppersurfer.tk%3A6969","udp%3A%2F%2Fexodus.desync.com%3A6969"],"infoHash":"e38b34048bd198d2055ffa192faf1bab4da09825","infoHashBuffer":{"type":"Buffer","data":[227,139,52,4,139,209,152,210,5,95,250,25,47,175,27,171,77,160,152,37]},"announce":[],"urlList":[]}}